<svg width="32" height="32" viewBox="0 0 32 32" fill="none" xmlns="http://www.w3.org/2000/svg">
<path d="M16 0C7.16364 0 0 7.16364 0 16C0 24.8364 7.16364 32 16 32C24.8364 32 32 24.8364 32 16C32 7.16364 24.8364 0 16 0ZM16 2.90909C23.2298 2.90909 29.0909 8.77018 29.0909 16C29.0909 21.9918 25.0609 27.0322 19.5668 28.5866C19.4993 28.4476 19.453 28.2952 19.4574 28.1222C19.4799 27.2429 19.4574 25.191 19.4574 24.4375C19.4574 23.1444 18.6392 22.2273 18.6392 22.2273C18.6392 22.2273 25.0568 22.2997 25.0568 15.4517C25.0568 12.8095 23.6761 11.4332 23.6761 11.4332C23.6761 11.4332 24.4014 8.61256 23.4247 7.41619C22.3302 7.29765 20.3698 8.46168 19.5327 9.00568C19.5327 9.00568 18.2065 8.46165 16 8.46165C13.7935 8.46165 12.4673 9.00568 12.4673 9.00568C11.6302 8.46168 9.66983 7.29838 8.57528 7.41619C7.59928 8.61256 8.32386 11.4332 8.32386 11.4332C8.32386 11.4332 6.94318 12.8081 6.94318 15.4503C6.94318 22.2983 13.3608 22.2273 13.3608 22.2273C13.3608 22.2273 12.6301 23.0591 12.5568 24.2514C12.128 24.4026 11.5434 24.581 10.9858 24.581C9.64034 24.581 8.61817 23.2741 8.2429 22.669C7.87344 22.0719 7.116 21.571 6.40909 21.571C5.94364 21.571 5.71591 21.8048 5.71591 22.071C5.71591 22.3372 6.36917 22.5225 6.79972 23.0156C7.70735 24.0556 7.69053 26.3949 10.9247 26.3949C11.3071 26.3949 11.9942 26.3068 12.5426 26.2315C12.5396 26.9658 12.5311 27.6699 12.5426 28.1207C12.5469 28.2943 12.4997 28.4472 12.4318 28.5866C6.93837 27.0318 2.90909 21.9913 2.90909 16C2.90909 8.77018 8.77018 2.90909 16 2.90909Z" fill="#292929"/>
</svg>
