<svg width="32" height="32" viewBox="0 0 32 32" fill="none" xmlns="http://www.w3.org/2000/svg">
<path d="M9.41875 0C0.684349 0 0 0.68355 0 9.41875V22.5813C0 31.3157 0.68435 32 9.41875 32H22.5813C31.3157 32 32 31.3165 32 22.5813V9.41875C32 0.68355 31.3165 0 22.5813 0H9.41875ZM7.33438 3.2H24.6656C28.5 3.2 28.8 3.49997 28.8 7.33438V24.6656C28.8 28.5 28.4992 28.8 24.6656 28.8H7.33438C3.49997 28.8 3.2 28.4992 3.2 24.6656V7.33438C3.2 3.49997 3.49997 3.2 7.33438 3.2ZM8.40156 5.20313C7.09836 5.20313 6.04219 6.25934 6.04219 7.56094C6.04219 8.86254 7.09756 9.92031 8.40156 9.92031C9.70156 9.92031 10.7578 8.86334 10.7578 7.56094C10.7578 6.26094 9.70156 5.20313 8.40156 5.20313ZM20.7469 11.4578C18.7789 11.4578 17.4587 12.5377 16.9188 13.5609H16.8625V11.7828H12.9828V24.8H17.025V18.3594C17.025 16.661 17.3499 15.0172 19.4547 15.0172C21.5299 15.0172 21.5563 16.9607 21.5563 18.4703V24.8H25.6V17.6594C25.6 14.1538 24.8437 11.4578 20.7469 11.4578ZM6.37813 11.7828V24.8H10.4234V11.7828H6.37813Z" fill="#292929"/>
</svg>
