<svg width="72" height="39" viewBox="0 0 72 39" fill="none" xmlns="http://www.w3.org/2000/svg">
<path d="M0.456055 0.127991H7.17605V38H0.456055V0.127991Z" fill="#141414"/>
<path d="M14.0967 38V0.127991H20.8167V38H14.0967ZM26.1447 23.744L35.6487 38H27.8247L21.7287 27.584L26.1447 23.744ZM18.8007 32.192L18.1287 25.808L30.8007 16.496L34.8807 20.096L18.8007 32.192Z" fill="#141414"/>
<path d="M38.1522 27.248C38.1522 25.104 38.6482 23.184 39.6402 21.488C40.6642 19.792 42.0882 18.464 43.9122 17.504C45.7362 16.512 47.8322 16.016 50.2002 16.016C52.6002 16.016 54.6802 16.512 56.4402 17.504C58.2002 18.464 59.5442 19.792 60.4722 21.488C61.4322 23.184 61.9122 25.104 61.9122 27.248C61.9122 29.392 61.4322 31.328 60.4722 33.056C59.5442 34.752 58.2002 36.096 56.4402 37.088C54.6802 38.08 52.5682 38.576 50.1042 38.576C47.8002 38.576 45.7362 38.128 43.9122 37.232C42.1202 36.336 40.7122 35.04 39.6882 33.344C38.6642 31.648 38.1522 29.616 38.1522 27.248ZM44.9202 27.296C44.9202 28.384 45.1442 29.376 45.5922 30.272C46.0402 31.136 46.6482 31.824 47.4162 32.336C48.1842 32.848 49.0482 33.104 50.0082 33.104C51.0642 33.104 51.9762 32.848 52.7442 32.336C53.5122 31.824 54.1042 31.136 54.5202 30.272C54.9362 29.376 55.1442 28.384 55.1442 27.296C55.1442 26.176 54.9362 25.184 54.5202 24.32C54.1042 23.456 53.5122 22.768 52.7442 22.256C51.9762 21.744 51.0642 21.488 50.0082 21.488C49.0482 21.488 48.1842 21.744 47.4162 22.256C46.6482 22.768 46.0402 23.456 45.5922 24.32C45.1442 25.184 44.9202 26.176 44.9202 27.296Z" fill="#141414"/>
<path d="M64.4701 34.544C64.4701 33.552 64.8221 32.72 65.5261 32.048C66.2621 31.376 67.0621 31.04 67.9261 31.04C68.7261 31.04 69.4781 31.376 70.1821 32.048C70.9181 32.72 71.2861 33.552 71.2861 34.544C71.2861 35.6 70.9181 36.448 70.1821 37.088C69.4781 37.696 68.7261 38 67.9261 38C67.0621 38 66.2621 37.696 65.5261 37.088C64.8221 36.448 64.4701 35.6 64.4701 34.544Z" fill="#141414"/>
</svg>
