<svg width="48" height="48" viewBox="0 0 48 48" fill="none" xmlns="http://www.w3.org/2000/svg">
<path d="M9.9 41C9.1 41 8.41667 40.7167 7.85 40.15C7.28333 39.5833 7 38.9 7 38.1V9.9C7 9.1 7.28333 8.41667 7.85 7.85C8.41667 7.28333 9.1 7 9.9 7H22.45V9.25H9.9C9.73333 9.25 9.58333 9.31667 9.45 9.45C9.31667 9.58333 9.25 9.73333 9.25 9.9V38.1C9.25 38.2667 9.31667 38.4167 9.45 38.55C9.58333 38.6833 9.73333 38.75 9.9 38.75H38.1C38.2667 38.75 38.4167 38.6833 38.55 38.55C38.6833 38.4167 38.75 38.2667 38.75 38.1V25.55H41V38.1C41 38.9 40.7167 39.5833 40.15 40.15C39.5833 40.7167 38.9 41 38.1 41H9.9ZM19.2 30.4L17.6 28.8L37.15 9.25H26.5V7H41V21.5H38.75V10.9L19.2 30.4Z" fill="#CCCCCC"/>
</svg>
